<svg width="67" height="68" viewBox="0 0 67 68" fill="none" xmlns="http://www.w3.org/2000/svg">
<rect x="1" y="1" width="65" height="66" fill="white" stroke="white" stroke-width="2"/>
<mask id="path-2-outside-1_322_46" maskUnits="userSpaceOnUse" x="24" y="24" width="20" height="20" fill="black">
<rect fill="white" x="24" y="24" width="20" height="20"/>
<path d="M34 26C29.5883 26 26 29.5883 26 34C26 38.4117 29.5883 42 34 42C38.4117 42 42 38.4117 42 34C42 29.5883 38.4117 26 34 26ZM41.2282 33.619H38.6935C38.622 30.8889 37.7818 28.5575 36.5218 27.2163C39.1608 28.1994 41.0756 30.6806 41.2282 33.619ZM33.6221 26.7977C33.6221 26.8106 33.6191 26.8255 33.6191 26.8384V33.6191H30.0686C30.1758 30.0963 31.7273 27.1479 33.6221 26.7977ZM33.6191 34.381V41.1617C33.6191 41.1745 33.6221 41.1894 33.6221 41.2023C31.7253 40.8521 30.1737 37.9038 30.0696 34.381L33.6191 34.381ZM34.3781 41.2023C34.3781 41.1894 34.381 41.1745 34.381 41.1616V34.3809H37.9315C37.8244 37.9037 36.2729 40.8521 34.3781 41.2023ZM34.381 33.619V26.8383C34.381 26.8255 34.3781 26.8106 34.3781 26.7977C36.2749 27.1479 37.8264 30.0962 37.9306 33.619L34.381 33.619ZM31.4782 27.2163C30.2183 28.5575 29.378 30.8889 29.3065 33.619H26.7718C26.9246 30.6806 28.8393 28.1994 31.4782 27.2163ZM26.7719 34.381H29.3066C29.378 37.1111 30.2183 39.4425 31.4782 40.7837C28.8393 39.8006 26.9245 37.3194 26.7719 34.381ZM36.522 40.7837C37.7819 39.4425 38.6222 37.1111 38.6936 34.381H41.2283C41.0756 37.3194 39.1608 39.8006 36.522 40.7837Z"/>
</mask>
<path d="M34 26C29.5883 26 26 29.5883 26 34C26 38.4117 29.5883 42 34 42C38.4117 42 42 38.4117 42 34C42 29.5883 38.4117 26 34 26ZM41.2282 33.619H38.6935C38.622 30.8889 37.7818 28.5575 36.5218 27.2163C39.1608 28.1994 41.0756 30.6806 41.2282 33.619ZM33.6221 26.7977C33.6221 26.8106 33.6191 26.8255 33.6191 26.8384V33.6191H30.0686C30.1758 30.0963 31.7273 27.1479 33.6221 26.7977ZM33.6191 34.381V41.1617C33.6191 41.1745 33.6221 41.1894 33.6221 41.2023C31.7253 40.8521 30.1737 37.9038 30.0696 34.381L33.6191 34.381ZM34.3781 41.2023C34.3781 41.1894 34.381 41.1745 34.381 41.1616V34.3809H37.9315C37.8244 37.9037 36.2729 40.8521 34.3781 41.2023ZM34.381 33.619V26.8383C34.381 26.8255 34.3781 26.8106 34.3781 26.7977C36.2749 27.1479 37.8264 30.0962 37.9306 33.619L34.381 33.619ZM31.4782 27.2163C30.2183 28.5575 29.378 30.8889 29.3065 33.619H26.7718C26.9246 30.6806 28.8393 28.1994 31.4782 27.2163ZM26.7719 34.381H29.3066C29.378 37.1111 30.2183 39.4425 31.4782 40.7837C28.8393 39.8006 26.9245 37.3194 26.7719 34.381ZM36.522 40.7837C37.7819 39.4425 38.6222 37.1111 38.6936 34.381H41.2283C41.0756 37.3194 39.1608 39.8006 36.522 40.7837Z" fill="white"/>
<path d="M41.2282 33.619V35.619H43.3348L43.2255 33.5153L41.2282 33.619ZM38.6935 33.619L36.6941 33.6714L36.7451 35.619H38.6935V33.619ZM36.5218 27.2163L37.22 25.3421L35.0641 28.5856L36.5218 27.2163ZM33.6221 26.7977H35.6221V24.3942L33.2586 24.831L33.6221 26.7977ZM33.6191 33.6191V35.6191H35.6191V33.6191H33.6191ZM30.0686 33.6191L28.0696 33.5583L28.0069 35.6191H30.0686V33.6191ZM33.6191 34.381H35.6191V32.3809L33.6191 32.381L33.6191 34.381ZM33.6221 41.2023L33.259 43.1691L35.6221 43.6054V41.2023H33.6221ZM30.0696 34.381L30.0696 32.381L28.0096 32.381L28.0705 34.4401L30.0696 34.381ZM34.3781 41.2023H32.3781V43.6058L34.7416 43.169L34.3781 41.2023ZM34.381 34.3809V32.3809H32.381V34.3809H34.381ZM37.9315 34.3809L39.9306 34.4417L39.9933 32.3809H37.9315V34.3809ZM34.381 33.619H32.381V35.6191L34.3811 35.619L34.381 33.619ZM34.3781 26.7977L34.7412 24.8309L32.3781 24.3946V26.7977H34.3781ZM37.9306 33.619L37.9306 35.619L39.9905 35.619L39.9297 33.5599L37.9306 33.619ZM31.4782 27.2163L32.9359 28.5856L30.7799 25.3421L31.4782 27.2163ZM29.3065 33.619V35.619H31.2549L31.3059 33.6714L29.3065 33.619ZM26.7718 33.619L24.7745 33.5152L24.6651 35.619H26.7718V33.619ZM26.7719 34.381V32.381H24.6653L24.7746 34.4847L26.7719 34.381ZM29.3066 34.381L31.3059 34.3286L31.255 32.381H29.3066V34.381ZM31.4782 40.7837L30.78 42.6579L32.9359 39.4144L31.4782 40.7837ZM36.522 40.7837L35.0643 39.4144L37.2202 42.6579L36.522 40.7837ZM38.6936 34.381V32.381H36.7453L36.6943 34.3286L38.6936 34.381ZM41.2283 34.381L43.2256 34.4848L43.335 32.381H41.2283V34.381ZM34 24C28.4837 24 24 28.4837 24 34H28C28 30.6929 30.6929 28 34 28V24ZM24 34C24 39.5163 28.4837 44 34 44V40C30.6929 40 28 37.3071 28 34H24ZM34 44C39.5163 44 44 39.5163 44 34H40C40 37.3071 37.3071 40 34 40V44ZM44 34C44 28.4837 39.5163 24 34 24V28C37.3071 28 40 30.6929 40 34H44ZM41.2282 31.619H38.6935V35.619H41.2282V31.619ZM40.6928 33.5667C40.6132 30.5242 39.6803 27.6573 37.9795 25.8469L35.0641 28.5856C35.8833 29.4576 36.6309 31.2535 36.6941 33.6714L40.6928 33.5667ZM35.8236 29.0904C37.7377 29.8035 39.1208 31.6043 39.2309 33.7228L43.2255 33.5153C43.0303 29.757 40.5839 26.5953 37.22 25.3421L35.8236 29.0904ZM31.6221 26.7977C31.6221 26.7613 31.6231 26.7299 31.6243 26.7051C31.6256 26.6802 31.6271 26.6595 31.6283 26.6446C31.6295 26.6297 31.6306 26.6181 31.6313 26.6121C31.6318 26.6066 31.6323 26.6022 31.632 26.605C31.6319 26.6057 31.6311 26.6136 31.6302 26.6225C31.6292 26.632 31.6277 26.647 31.6262 26.6653C31.6247 26.6836 31.623 26.7077 31.6216 26.7359C31.6203 26.7641 31.6191 26.7987 31.6191 26.8384H35.6191C35.6191 26.8748 35.6181 26.9062 35.6169 26.931C35.6157 26.9559 35.6141 26.9766 35.6129 26.9915C35.6117 27.0064 35.6106 27.018 35.61 27.024C35.6094 27.0295 35.6089 27.0339 35.6092 27.0311C35.6093 27.0304 35.6102 27.0225 35.6111 27.0136C35.612 27.0041 35.6135 26.9891 35.615 26.9708C35.6165 26.9525 35.6182 26.9284 35.6196 26.9002C35.621 26.872 35.6221 26.8374 35.6221 26.7977H31.6221ZM31.6191 26.8384V33.6191H35.6191V26.8384H31.6191ZM33.6191 31.6191H30.0686V35.6191H33.6191V31.6191ZM32.0677 33.6799C32.1135 32.1749 32.469 30.8609 32.9476 29.9449C33.4654 28.9539 33.9224 28.7761 33.9856 28.7644L33.2586 24.831C31.427 25.1696 30.1608 26.641 29.4024 28.0925C28.6048 29.6189 28.1309 31.5405 28.0696 33.5583L32.0677 33.6799ZM31.6191 34.381V41.1617H35.6191V34.381H31.6191ZM31.6191 41.1617C31.6191 41.2013 31.6203 41.236 31.6216 41.2641C31.623 41.2923 31.6247 41.3164 31.6262 41.3347C31.6277 41.353 31.6292 41.368 31.6302 41.3776C31.6311 41.3865 31.6319 41.3944 31.632 41.3951C31.6323 41.3978 31.6318 41.3934 31.6313 41.388C31.6306 41.3819 31.6295 41.3703 31.6283 41.3554C31.6271 41.3405 31.6256 41.3198 31.6243 41.295C31.6231 41.2701 31.6221 41.2388 31.6221 41.2023H35.6221C35.6221 41.1627 35.621 41.128 35.6196 41.0998C35.6182 41.0717 35.6165 41.0476 35.615 41.0293C35.6135 41.011 35.612 40.9959 35.6111 40.9864C35.6102 40.9775 35.6093 40.9696 35.6092 40.9689C35.6089 40.9661 35.6094 40.9706 35.61 40.976C35.6106 40.9821 35.6117 40.9937 35.6129 41.0085C35.6141 41.0235 35.6157 41.0442 35.6169 41.069C35.6181 41.0938 35.6191 41.1252 35.6191 41.1617H31.6191ZM33.9852 39.2356C33.9207 39.2237 33.4635 39.0454 32.9462 38.0553C32.468 37.1398 32.1132 35.8264 32.0687 34.3219L28.0705 34.4401C28.1301 36.4584 28.6032 38.3805 29.4009 39.9075C30.1597 41.3598 31.4267 42.8308 33.259 43.1691L33.9852 39.2356ZM30.0696 36.381L33.6191 36.381L33.6191 32.381L30.0696 32.381L30.0696 36.381ZM36.3781 41.2023C36.3781 41.2387 36.377 41.2701 36.3758 41.2949C36.3746 41.3197 36.3731 41.3404 36.3719 41.3553C36.3706 41.3702 36.3695 41.3818 36.3689 41.3879C36.3683 41.3933 36.3679 41.3977 36.3682 41.395C36.3682 41.3943 36.3691 41.3864 36.37 41.3775C36.371 41.3679 36.3724 41.3529 36.3739 41.3346C36.3754 41.3163 36.3771 41.2922 36.3785 41.2641C36.3799 41.2359 36.381 41.2013 36.381 41.1616H32.381C32.381 41.1252 32.3821 41.0938 32.3833 41.069C32.3845 41.0442 32.386 41.0235 32.3872 41.0085C32.3884 40.9937 32.3896 40.9821 32.3902 40.976C32.3907 40.9706 32.3912 40.9662 32.3909 40.9689C32.3908 40.9696 32.39 40.9775 32.3891 40.9864C32.3881 40.996 32.3867 41.011 32.3852 41.0293C32.3837 41.0476 32.3819 41.0717 32.3806 41.0998C32.3792 41.128 32.3781 41.1626 32.3781 41.2023H36.3781ZM36.381 41.1616V34.3809H32.381V41.1616H36.381ZM34.381 36.3809H37.9315V32.3809H34.381V36.3809ZM35.9324 34.3201C35.8867 35.8251 35.5312 37.1391 35.0526 38.0551C34.5347 39.0461 34.0778 39.2239 34.0145 39.2356L34.7416 43.169C36.5731 42.8304 37.8393 41.359 38.5977 39.9075C39.3954 38.3811 39.8692 36.4595 39.9306 34.4417L35.9324 34.3201ZM36.381 33.619V26.8383H32.381V33.619H36.381ZM36.381 26.8383C36.381 26.7987 36.3799 26.764 36.3785 26.7359C36.3771 26.7077 36.3754 26.6837 36.3739 26.6653C36.3724 26.6471 36.371 26.632 36.37 26.6225C36.3691 26.6136 36.3682 26.6057 36.3682 26.605C36.3679 26.6022 36.3683 26.6066 36.3689 26.6121C36.3695 26.6182 36.3706 26.6298 36.3719 26.6446C36.3731 26.6595 36.3746 26.6802 36.3758 26.7051C36.377 26.7299 36.3781 26.7613 36.3781 26.7977H32.3781C32.3781 26.8373 32.3792 26.872 32.3806 26.9001C32.3819 26.9283 32.3837 26.9524 32.3852 26.9707C32.3867 26.989 32.3881 27.004 32.3891 27.0135C32.39 27.0224 32.3908 27.0303 32.3909 27.031C32.3912 27.0338 32.3907 27.0294 32.3902 27.0239C32.3896 27.0179 32.3884 27.0063 32.3872 26.9914C32.386 26.9765 32.3845 26.9558 32.3833 26.931C32.3821 26.9061 32.381 26.8748 32.381 26.8383H36.381ZM34.0149 28.7644C34.0795 28.7763 34.5366 28.9546 35.0539 29.9447C35.5322 30.8602 35.887 32.1736 35.9314 33.6781L39.9297 33.5599C39.87 31.5416 39.397 29.6195 38.5992 28.0925C37.8405 26.6402 36.5735 25.1692 34.7412 24.8309L34.0149 28.7644ZM37.9305 31.619L34.381 31.619L34.3811 35.619L37.9306 35.619L37.9305 31.619ZM30.0204 25.8469C28.3198 27.6574 27.3868 30.5242 27.3072 33.5667L31.3059 33.6714C31.3691 31.2536 32.1167 29.4576 32.9359 28.5856L30.0204 25.8469ZM29.3065 31.619H26.7718V35.619H29.3065V31.619ZM28.7691 33.7229C28.8793 31.6043 30.2625 29.8035 32.1764 29.0904L30.7799 25.3421C27.4162 26.5953 24.9699 29.757 24.7745 33.5152L28.7691 33.7229ZM26.7719 36.381H29.3066V32.381H26.7719V36.381ZM27.3073 34.4333C27.3869 37.4758 28.3198 40.3427 30.0206 42.1531L32.9359 39.4144C32.1168 38.5424 31.3692 36.7465 31.3059 34.3286L27.3073 34.4333ZM32.1765 38.9096C30.2624 38.1965 28.8792 36.3957 28.7692 34.2772L24.7746 34.4847C24.9698 38.243 27.4162 41.4047 30.78 42.6579L32.1765 38.9096ZM37.9797 42.1531C39.6804 40.3426 40.6133 37.4758 40.6929 34.4333L36.6943 34.3286C36.631 36.7464 35.8834 38.5424 35.0643 39.4144L37.9797 42.1531ZM38.6936 36.381H41.2283V32.381H38.6936V36.381ZM39.231 34.2771C39.1209 36.3957 37.7377 38.1965 35.8238 38.9096L37.2202 42.6579C40.584 41.4047 43.0302 38.243 43.2256 34.4848L39.231 34.2771Z" fill="black" mask="url(#path-2-outside-1_322_46)"/>
</svg>
